<svg xmlns="http://www.w3.org/2000/svg" viewBox="0 0 108.2 138.16"><defs><style>.cls-1{fill:#f7931e;stroke:#8c6239;stroke-miterlimit:10;stroke-width:0.25px;}.cls-2{fill:#754c24;}</style></defs><title>cat4</title><g id="Layer_2" data-name="Layer 2"><g id="Layer_1-2" data-name="Layer 1"><path class="cls-1" d="M106.3,113.64a6.16,6.16,0,0,1-.64,5.89,11.64,11.64,0,0,1-9.87,5.53,3.9,3.9,0,0,0-2.71,1.16c-2.06,2.08-5.18,3-8.14,3.41-2.78.33-5.6.29-8.34.76h0a18.69,18.69,0,0,0-2.33.53,31.17,31.17,0,0,0-4.68,2l-.16.08c-.92.46-1.82.91-2.76,1.31a29,29,0,0,1-7.08,1.92l-.28,0a57.36,57.36,0,0,1-11.12.28H48l-.28,0c-3.74-.22-7.48-.59-11.19-1.14l-3.22-.5c-2.21-.34-4.4-.79-6.56-1.32h0q-3.28-.75-6.52-1.67c-.9-.25-1.82-.51-2.76-.73l-1.08-.24s0,0,0,0c-2.77-.54-5.56-.6-7.81,1a7.24,7.24,0,0,0-1.15,1,.47.47,0,0,0-.14.14c-1.41,1.45-2.45,3.3-4.09,4.48-.76.53-1.92.86-2.53.16a2,2,0,0,1-.39-.95c-.74-3.93,1.21-7.86,4.28-10.53L6,125.08a13.67,13.67,0,0,1,2.21-1.23,21.59,21.59,0,0,1,9.29-1.58h0c.22,0,.44,0,.66,0a48.84,48.84,0,0,1,6.06.68c1.43.24,2.85.52,4.26.83h0l.29.07c3.67.8,7.3,1.78,10.92,2.79L41,127h0l.71.19.11,0a29.37,29.37,0,0,0,7.1,1.18h.29c.5,0,1,0,1.51-.07a22.49,22.49,0,0,0,6.36-1.73h0c.54-.72-1.36-.71-2.38-1a12.25,12.25,0,0,1-2.46-1c-1.87-1-3.12-2.28-3.43-4.39a4.75,4.75,0,0,1,3.11-5c2.53-.84,5.74.49,7.73-1.29a5.56,5.56,0,0,0,1.46-3.62c.76-7.13-2.07-14.15-5.56-20.41S47.83,77.66,45.4,70.91s-2.79-14.73,1.22-20.67l.11-.15-.06,0a17.91,17.91,0,0,1-3.19-2.9c-4.59-5.29-4.66-10.81-3.69-17.23,1.2-7.85.31-16.29,3-23.47A1,1,0,0,1,44.24,6c5.26,3.14,7.67,9.5,9.27,15.47a1,1,0,0,0,1.58.51,19.58,19.58,0,0,1,2.76-1.81A20.39,20.39,0,0,1,64.08,18H65c3.82,0,7.54.9,11.31,1.52a1,1,0,0,0,1.14-1.07q-.69-7.28-1.39-14.58c-.12-1.29-.53-3.36.73-3.71A10,10,0,0,1,83,2.41c3,2.59,4.72,6.46,6.84,9.86C93.63,18.32,97,25,97,32.16a19.3,19.3,0,0,1-4.26,12.25h0a14,14,0,0,1-2.28,2.21l-.15.11.27-.16a14,14,0,0,0,2.28-2.21c7.66,6.59,12.43,16.16,14.26,26.09s.9,20.23-1.52,30a29.25,29.25,0,0,1-3.88,9.73,33.89,33.89,0,0,1-7.3,7l6-4.37c1.24-.92,2.63-1.88,4.5-.78A3.76,3.76,0,0,1,106.3,113.64Z"/><path class="cls-2" d="M94.23,71.32a8.53,8.53,0,0,1-2.13,4.36,17.29,17.29,0,0,1-3.74,3.16,29.94,29.94,0,0,1-8.88,3.78,29.28,29.28,0,0,1-9.6.77,21.51,21.51,0,0,1-9.13-2.77l.08-.21a46.78,46.78,0,0,0,9.1.47c.75,0,1.49-.12,2.23-.15s1.48-.16,2.21-.3a42.66,42.66,0,0,0,4.37-.84c1.45-.34,2.87-.78,4.28-1.24s2.79-1,4.15-1.65A22.56,22.56,0,0,0,91,74.5a10.35,10.35,0,0,0,3-3.25Z"/><path class="cls-2" d="M92.55,60.66a29.1,29.1,0,0,1-6.89,7.07,34.3,34.3,0,0,1-4.24,2.66,34.11,34.11,0,0,1-4.68,1.93A26.14,26.14,0,0,1,66.65,73.5a18.62,18.62,0,0,1-9.44-3.29l.1-.24a32.33,32.33,0,0,0,9.31.66,37.53,37.53,0,0,0,9-1.79,42.47,42.47,0,0,0,4.31-1.65c1.43-.59,2.81-1.3,4.2-2,2.75-1.47,5.49-3.06,8.27-4.72Z"/><path class="cls-2" d="M89.49,50.81a9.18,9.18,0,0,1-1.23,2.09,12.09,12.09,0,0,1-.78,1l-.88.86a16.29,16.29,0,0,1-1.88,1.55,16.64,16.64,0,0,1-2,1.33c-.68.45-1.4.78-2.1,1.18s-1.45.66-2.18,1A34.52,34.52,0,0,1,74,61.37,38.4,38.4,0,0,1,64.63,63H62.25c-.8,0-1.6-.13-2.39-.19s-1.59-.27-2.37-.41a20.17,20.17,0,0,1-2.32-.73l0-.25c.77-.11,1.53-.16,2.28-.25l2.26-.33c.75-.11,1.5-.21,2.24-.35l2.23-.43c3-.57,5.9-1.3,8.82-2,.73-.18,1.46-.39,2.18-.61s1.45-.43,2.15-.69,1.43-.47,2.13-.76,1.43-.48,2.11-.78a36,36,0,0,0,4.06-1.94,16,16,0,0,0,3.64-2.62Z"/><path class="cls-2" d="M96.59,82.84a15.19,15.19,0,0,1-6,6.56c-.64.37-1.26.8-1.92,1.14l-2,.94c-.68.28-1.36.57-2.06.81s-1.39.45-2.1.64a28.7,28.7,0,0,1-8.7,1,22.07,22.07,0,0,1-4.4-.6,13.14,13.14,0,0,1-4.15-1.74l0-.24c2.84-.24,5.5-.65,8.18-1.12s5.3-1,7.93-1.63a71.29,71.29,0,0,0,7.72-2.3,31.33,31.33,0,0,0,7.26-3.66Z"/><path class="cls-2" d="M97.25,93.13a11.84,11.84,0,0,1-4.73,7.47,19.25,19.25,0,0,1-8.21,3.56c-.74.13-1.47.22-2.21.33a20.43,20.43,0,0,1-2.21.1c-.74,0-1.48,0-2.21-.07s-1.47-.22-2.19-.32a16.2,16.2,0,0,1-7.89-3.61l.11-.22c.68.16,1.32.38,2,.53s1.32.3,2,.36a30.13,30.13,0,0,0,4,.34,37.45,37.45,0,0,0,7.92-.76A27.27,27.27,0,0,0,91,98.17,18,18,0,0,0,97,93Z"/><path class="cls-2" d="M25,130.73a15.91,15.91,0,0,0,1.09,2.48l-.08.1-.09.1A3.24,3.24,0,0,1,25,133s0,0,0,0a4.26,4.26,0,0,1-1.5-1.41,5.47,5.47,0,0,1-.84-3.62,5.92,5.92,0,0,1,1.37-3.2,4.22,4.22,0,0,1,2-1.33s0,0,0,0h0a3.57,3.57,0,0,1,.57-.1l.06.12.07.11A19,19,0,0,0,25.5,126a8.56,8.56,0,0,0-.7,2.39A5.56,5.56,0,0,0,25,130.73Z"/><path class="cls-2" d="M46.3,132.31a6.44,6.44,0,0,0-.14,2,9.68,9.68,0,0,0,.48,2.13l-.11.06-.11.06-.24-.13h0a4.36,4.36,0,0,1-1.77-1.82A4.13,4.13,0,0,1,44,132a4.18,4.18,0,0,1,1.36-2.42,4.74,4.74,0,0,1,2.55-1.19h0l.21,0,.08.08.08.09a20,20,0,0,0-1.24,1.93A7.57,7.57,0,0,0,46.3,132.31Z"/><path class="cls-2" d="M38.85,126.44s0,.06,0,.09c-.53.63-1,1.29-1.5,2a11.41,11.41,0,0,0-1.12,2.09,6.42,6.42,0,0,0-.49,2.21,6.05,6.05,0,0,0,.3,2.26s0,0,0,0a.1.1,0,0,1-.07.09h-.06l-.09,0-.09,0a3,3,0,0,1-1.41-.83,3.4,3.4,0,0,1-.81-1.39,4.43,4.43,0,0,1,.32-3.09,6.13,6.13,0,0,1,1.91-2.36,6.43,6.43,0,0,1,2.26-1h0a3,3,0,0,1,.62-.1h.1c.06,0,.11,0,.12.06A.06.06,0,0,1,38.85,126.44Z"/><path class="cls-2" d="M58.72,136.25l-.08.08-.08.07a.43.43,0,0,1-.16-.05h0a4.17,4.17,0,0,1-2.28-1.65A6.33,6.33,0,0,1,55,131.83a5.74,5.74,0,0,1,.37-3.09,4.27,4.27,0,0,1,1.29-1.68s0,0,0,0a3.11,3.11,0,0,1,.94-.49l0,0,.14.09a10.94,10.94,0,0,0-.57,2.44,10.72,10.72,0,0,0-.07,2.47,11.85,11.85,0,0,0,.51,2.42A10.43,10.43,0,0,0,58.72,136.25Z"/><path class="cls-2" d="M77.94,130.24l-.07.1-.07.1-.09,0a4.85,4.85,0,0,1-2.89-2,9.07,9.07,0,0,1-.91-1.47,6.24,6.24,0,0,1-.62-1.9,4.49,4.49,0,0,1,.27-2.13,5,5,0,0,1,1.09-1.65,7.39,7.39,0,0,1,2.53-1.64l.49-.17h0l.07.1.07.1h0A20.48,20.48,0,0,0,76,122.29a3.37,3.37,0,0,0-.42,2.36,19.36,19.36,0,0,0,1.15,2.59C77.2,128.23,77.47,129.12,77.94,130.24Z"/><path class="cls-2" d="M57.62,20a5.49,5.49,0,0,1,4.85,1,8,8,0,0,1,1.82,1.89A9.54,9.54,0,0,1,64.91,24a6,6,0,0,1,.48,1.18,10.57,10.57,0,0,1,.39,4.85,8.71,8.71,0,0,1-1.87,4.36l-.25-.07a40.74,40.74,0,0,0-.29-4.25,19.7,19.7,0,0,0-.88-3.91,9.73,9.73,0,0,0-.76-1.78,9.65,9.65,0,0,0-1-1.61,9.35,9.35,0,0,0-3.15-2.53Z"/><path class="cls-2" d="M63.73,18a5.74,5.74,0,0,1,4.81,1.07l1,.85a9.46,9.46,0,0,1,.81,1L71,22l.48,1.15.37,1.17L72,25.5c0,.4.09.8.11,1.2l-.05,1.2a8.81,8.81,0,0,1-1.54,4.44l-.24-.06a25.89,25.89,0,0,0-.42-4.21,19.65,19.65,0,0,0-1.13-3.87,13.43,13.43,0,0,0-2-3.33,11.83,11.83,0,0,0-3.11-2.64Z"/><path class="cls-2" d="M72.81,18.87a5.3,5.3,0,0,1,2,.72,6.53,6.53,0,0,1,1.58,1.2,10,10,0,0,1,2,3.31A11.17,11.17,0,0,1,79.24,28a6.47,6.47,0,0,1-1.14,3.91l-.24,0a11.88,11.88,0,0,0-.69-3.4,23,23,0,0,0-1.34-3.16c-.5-1-1.1-2-1.64-3.05A28,28,0,0,1,72.63,19Z"/><path class="cls-2" d="M69.43,132.8l0,.12,0,.11h-.1a4.84,4.84,0,0,1-3.32-1.2,9.29,9.29,0,0,1-1.26-1.18A6.19,6.19,0,0,1,63.58,129a4.48,4.48,0,0,1-.3-2.13A4.92,4.92,0,0,1,63.9,125a7.29,7.29,0,0,1,2-2.25c.14-.1.28-.2.43-.29h0l.09.08.09.07h0a20.12,20.12,0,0,0-1,3,3.35,3.35,0,0,0,.22,2.38,18.49,18.49,0,0,0,1.78,2.2C68.19,131.06,68.68,131.84,69.43,132.8Z"/><path class="cls-2" d="M8.44,132H8.32a3,3,0,0,1-2.21-1.11,4.34,4.34,0,0,1-1.05-2.25,4.43,4.43,0,0,1,.33-2.49,3.81,3.81,0,0,1,.4-.71,2.77,2.77,0,0,1,1.25-1l.09,0,0,0h.06a.09.09,0,0,1,.1.05.13.13,0,0,1,0,.06,6.44,6.44,0,0,0-.53,3.87,6.58,6.58,0,0,0,1.65,3.52A.09.09,0,0,1,8.44,132Z"/><path class="cls-2" d="M14.82,128.53a12.31,12.31,0,0,0,1,2.14l-.08.09-.09.09a3.44,3.44,0,0,1-.9-.32h0a3.88,3.88,0,0,1-1.43-1.23,4.41,4.41,0,0,1-.81-3.13,4.91,4.91,0,0,1,1.32-2.79,4,4,0,0,1,1.94-1.15s0,0,0,0h0a2.44,2.44,0,0,1,.54-.09l.06.1.07.1a16.88,16.88,0,0,0-1.24,2,6.92,6.92,0,0,0-.66,2.07A4.53,4.53,0,0,0,14.82,128.53Z"/></g></g></svg>