<svg xmlns="http://www.w3.org/2000/svg" viewBox="0 0 181.49 200.07"><defs><style>.cls-1,.cls-2{fill:#f6c2d3;}.cls-1,.cls-10,.cls-2,.cls-3,.cls-4,.cls-6,.cls-7,.cls-8{stroke:#a67c52;}.cls-1,.cls-10,.cls-2,.cls-3,.cls-4,.cls-5,.cls-6,.cls-7,.cls-8{stroke-miterlimit:10;}.cls-1,.cls-5{stroke-width:0.25px;}.cls-2,.cls-3,.cls-4,.cls-6,.cls-7,.cls-8{stroke-width:0.75px;}.cls-3{fill:#ffff9e;}.cls-4{fill:#fbc661;}.cls-10,.cls-5,.cls-6,.cls-7,.cls-8{fill:none;}.cls-5{stroke:#000;}.cls-7,.cls-8{stroke-linecap:round;}.cls-8{opacity:0.96;}.cls-9{fill:#a67c52;}</style></defs><title>cat6</title><g id="Layer_2" data-name="Layer 2"><g id="Layer_1-2" data-name="Layer 1"><path class="cls-1" d="M71.21,26.68A10.55,10.55,0,0,1,69,28a10.81,10.81,0,0,1-5.62.85A15.36,15.36,0,0,1,63,25.66c0-2.92.83-3.8,1.7-7.66.64-2.85.43-3.43,1.36-7.49.83-3.63,1.2-4,1.53-4.09,1.14-.14,2.59,3.85,3.24,6.13A29.72,29.72,0,0,1,71.21,26.68Z"/><path class="cls-1" d="M124.06,16.8c-.14,6.63-.6,6.38-.77,7.32A18,18,0,0,1,118.87,33h-5.11A58.39,58.39,0,0,1,116,23.61a49.05,49.05,0,0,1,3.75-8.51c1.13-2,2.62-4.67,3.4-4.42C123.65,10.84,124.16,12.23,124.06,16.8Z"/><path class="cls-2" d="M91.93,68.22q-.08.48-.15,1c-.38,2.58-.64,3.41-1.4,4a3.1,3.1,0,0,1-2.77.41l-.23-.09a3.11,3.11,0,0,1-1.53-1.71,3.71,3.71,0,0,1-.18-2,4.7,4.7,0,0,1,2.79-2.93,3.06,3.06,0,0,1,2.43.06A2.53,2.53,0,0,1,91.93,68.22Z"/><path class="cls-3" d="M83.23,53.52A1.18,1.18,0,0,1,82,55a23.45,23.45,0,0,1-9.42-2.81c-2-1.1-5.93-3.28-8-7.83-.83-1.82-2.24-4.94-.68-7.66A6.35,6.35,0,0,1,70,33.66c1.87.28,3.54,2.63,6.81,7.31a41.77,41.77,0,0,1,4.93,8.35A34.06,34.06,0,0,1,83.23,53.52Z"/><path class="cls-3" d="M118.62,47.77a2.35,2.35,0,0,1-1,1.87,26.19,26.19,0,0,1-3,1.89c-3.52,1.85-6,2.06-10.55,3.4-1.26.37-3,.93-5.07,1.72a.68.68,0,0,1-.81-1c1.35-2,2.4-3.7,3.16-5,1.69-2.82,2.28-4,3.91-5.79A13.78,13.78,0,0,1,110,41.32a12.69,12.69,0,0,1,4.37-1,2,2,0,0,1,1.57.64,9.75,9.75,0,0,1,1.89,2.93A10.16,10.16,0,0,1,118.62,47.77Z"/><path class="cls-4" d="M46.53,149.06c-6.69,19.24-4.1,24.73-3.07,26.55,2.91,5.14,8.45,7.63,13,8.85a25.18,25.18,0,0,0,1.2,4.72c-3.1,2-9.06,4.89-16.25,3.79s-11.7-5.68-15.32-9.44-13.54-14.08-12.25-27.32C15,144.66,24.25,135.78,32,128.38a85.74,85.74,0,0,0,6.39-6.13c2.54-2.85,9.32-10.46,11.49-20.17,1.86-8.34-.49-14.9-3.83-24.51-1.94-5.58-5-14-12.51-22.21C28.79,50.21,24.45,46.48,21,44.47c-4.25-3.41-4.39-7.57-2.81-9.79,2.41-3.41,10.09-1.09,12-.51,11,3.32,17.37,13.42,21.36,20.68a53.27,53.27,0,0,0-.17,9.44c.8,9.81,1.5,18.47,7.91,25A19.94,19.94,0,0,0,62.59,92a70.93,70.93,0,0,1-2,26.13C57.05,130.85,53,130.47,46.53,149.06Z"/><path class="cls-4" d="M132.25,55.55c-.8-5.71-3-14.34-4.08-18.64-1.71-6.75-1.22-8.48-.83-11.94.61-5.5,1.95-7.61,2.11-13.08a19.29,19.29,0,0,0-1.21-7.19A2.64,2.64,0,0,0,125.16,3a13.12,13.12,0,0,0-4.91,2.21,17.35,17.35,0,0,0-6.31,7.09,38.72,38.72,0,0,0-4.15,11C108,29.89,109.5,33,107,34.87c-.54.38-1.3.74-6.9.51s-8.44-.35-10.72-1c-2.63-.78-7.37-2.17-10.21-6.13-2-2.76-2.43-7.72-3.32-17.62-.31-3.48-.51-6.93-3.06-8.93A5.6,5.6,0,0,0,68.94.4c-3.51.39-5.58,5.44-6.64,8.17-6.46,16.55-8.17,27.57-8.17,27.57-1.28,8.24-2.19,14.12-2.64,18.9a53.27,53.27,0,0,0-.17,9.44c.8,9.81,1.5,18.47,7.91,25a19.94,19.94,0,0,0,3.3,2.72l.46.29c4.3,2.63,9.82,3.7,18.71,5.41l.18,0c2.11.41,4.12.8,6,1.14a87.32,87.32,0,0,0,10.16,1.32,38.19,38.19,0,0,0,4.66,0,28.56,28.56,0,0,0,11.4-3,34.86,34.86,0,0,0,17.68-22.28C133.88,67.08,132.83,59.65,132.25,55.55ZM63,25.85c0-2.92.83-3.8,1.7-7.66.64-2.85.43-3.43,1.36-7.49.83-3.63,1.2-4,1.53-4.09,1.14-.14,2.59,3.85,3.24,6.13a29.44,29.44,0,0,1,.46,13.49,1.66,1.66,0,0,1-.7,1.07,9.86,9.86,0,0,1-1.63.93,10.67,10.67,0,0,1-4.4.92,1.46,1.46,0,0,1-1.43-1.27A16.9,16.9,0,0,1,63,25.85ZM72.51,52.4c-2-1.1-5.93-3.28-8-7.83-.83-1.82-2.24-4.94-.68-7.66A6.35,6.35,0,0,1,70,33.85c1.87.28,3.54,2.63,6.81,7.31a41.77,41.77,0,0,1,4.93,8.35,35.75,35.75,0,0,1,1.5,4.31A1.11,1.11,0,0,1,82,55.22,23.45,23.45,0,0,1,72.51,52.4Zm19.21,17c-.38,2.58-.64,3.41-1.4,4a3.1,3.1,0,0,1-2.77.41l-.23-.09A3.11,3.11,0,0,1,85.79,72a3.71,3.71,0,0,1-.18-2A4.7,4.7,0,0,1,88.4,67a3.06,3.06,0,0,1,2.43.06,2.53,2.53,0,0,1,1,1.31Q91.79,68.89,91.72,69.4Zm26.82-22a3.16,3.16,0,0,1-1.32,2.73,25.2,25.2,0,0,1-2.67,1.62c-3.52,1.85-6,2.06-10.55,3.4-1.2.36-2.85.88-4.8,1.62a.77.77,0,0,1-.92-1.15c1.27-1.9,2.27-3.51,3-4.72,1.69-2.82,2.28-4,3.91-5.79A13.78,13.78,0,0,1,110,41.51a12.46,12.46,0,0,1,4.34-1,2,2,0,0,1,1.61.65,9.83,9.83,0,0,1,2.63,6.22ZM123.4,17c-.14,6.63,0,6.38-.17,7.32a17.61,17.61,0,0,1-4,8.29,1.54,1.54,0,0,1-1.2.56h-2.84A1.31,1.31,0,0,1,114,31.62a58.56,58.56,0,0,1,2-7.82,49.05,49.05,0,0,1,3.75-8.51c1.13-2,2.62-4.67,3.4-4.42C123.59,11,123.5,12.42,123.4,17Z"/><path class="cls-4" d="M114.17,184.35c1.9-1.59,4.12-1.78,5.12-.89,1.22,1.09.64,3.77-.57,5.3-1,1.21-2.28,1.7-5.3,2.3a63.62,63.62,0,0,1-9.76,1.15l-2.28.08a83.69,83.69,0,0,1-8.45-.08c-1.19-.08-2.26-.17-3.38-.29-1.78-.19-3.68-.47-6.38-.86l-.52-.08c-4.25-.62-7.11-1.14-9.42-1.52a43.7,43.7,0,0,0-8.13-.76,50.78,50.78,0,0,0-7.4.57l0-.09a25.18,25.18,0,0,1-1.2-4.72,4,4,0,0,1,1.12-3.74c1.6-1.7,4.07,1.47,4.45,2.74a144.76,144.76,0,0,0,6.1-16.53c3-12.8,4.28-11,5.45-22.3,1.53-14.69-3.4-32.51-3.4-32.51a122.57,122.57,0,0,0-7.14-19.79c4.3,2.63,9.82,3.7,18.71,5.41l.18,0c2.11.41,4.12.8,6,1.14a87.32,87.32,0,0,0,10.16,1.32,38.19,38.19,0,0,0,4.66,0,28.56,28.56,0,0,0,11.4-3A34.86,34.86,0,0,0,131.87,75c.91,2.52,1.84,5.36,2.74,8.49a137.94,137.94,0,0,1,5.11,28.6c.7,10.8,1.57,24.12-3.83,39.57A81.64,81.64,0,0,1,114.17,184.35Z"/><path class="cls-5" d="M114.17,184.35c-.17.14-.33.29-.49.45"/><path class="cls-6" d="M81.94,97.77c.08,15,.31,31.15-2,47.72-1.8,12.6-2.54,24.77-4.1,36.23"/><path class="cls-6" d="M88,98.91C89,114,89.7,131.53,86.19,150.08c-2.22,11.72-3.47,22.75-5.6,32.68"/><path class="cls-6" d="M82.65,191a7.09,7.09,0,0,0-.06-6,6.39,6.39,0,0,0-2-2.24,6.09,6.09,0,0,0-1.19-.64,7.2,7.2,0,0,0-3.61-.4,3.7,3.7,0,0,0-1.82.91c-1.31,1.24-1.25,3.13-1.21,4.34a8.17,8.17,0,0,0,.47,2.49"/><path class="cls-6" d="M98.67,184.58a154.76,154.76,0,0,0,3.69-21.22c1.07-10.48.73-17.78.51-27.58-.2-8.66-.35-20.71-.08-35.53"/><path class="cls-6" d="M98.13,100.23q.11,12-.37,24.66a545.21,545.21,0,0,1-5.5,59.37"/><path class="cls-6" d="M89.55,191.92c0-.51,0-1.08,0-1.69,0-2.6,0-3.9.51-4.6a3.7,3.7,0,0,1,2.2-1.37,13.18,13.18,0,0,1,5.59,0,3.33,3.33,0,0,1,.82.29c2.12,1.1,3,4.51,2.71,7.71"/><path class="cls-7" d="M89.43,87.7c-2-1.36-2.65-3.34-3.65-5,0-.06,0-.13,0-.19.29-4,1.12-5.84,1.79-8.91"/><path class="cls-7" d="M85.82,82.49c-1.4,1.25-2.69,3.08-5.08,3.59"/><path class="cls-8" d="M85.85,45.91a19.57,19.57,0,0,1,2.72,7.49c.27,2,1,7.47-1.51,12.87a14.05,14.05,0,0,0-1.39,3.51"/><path class="cls-7" d="M91.93,68.22c.31-2.31.45-4.19.56-5.46.25-3.27.37-4.91.38-5.17,0-2.23-.11-3.18.3-4.7a9.72,9.72,0,0,1,1.53-3.23"/><path class="cls-9" d="M112.83,40.5a18.52,18.52,0,0,1-.4,3.47,32.26,32.26,0,0,1-.84,3.25,24.23,24.23,0,0,1-1.19,3.13,14.58,14.58,0,0,1-1.82,3l-.27-.07a10.89,10.89,0,0,1-.07-3.55,15.9,15.9,0,0,1,.81-3.35,19.35,19.35,0,0,1,1.42-3.15,13.8,13.8,0,0,1,2.1-2.84Z"/><path class="cls-9" d="M74,36.86a33,33,0,0,1,1.07,3.92,32.68,32.68,0,0,1,.61,3.88,21.16,21.16,0,0,1,0,4.06,10.92,10.92,0,0,1-1.15,4.07l-.24,0a33.87,33.87,0,0,1-1.13-3.91A32.9,32.9,0,0,1,72.52,45a19.17,19.17,0,0,1,0-4.08,10.07,10.07,0,0,1,1.27-4.06Z"/><path class="cls-10" d="M.11,199.58c13.44-3,27-6,40.77-6.25,3.28-.08,6.62,0,9.8-.85,2.7-.71,5.19-2.08,7.87-2.87a31.51,31.51,0,0,1,11.7-.71c13.6,1.21,27.32,5.84,40.64,2.82,8-1.81,15.27-6.31,23.39-7.47,7.66-1.1,15.39.85,22.88,2.78l24.21,6.26"/></g></g></svg>