<svg xmlns="http://www.w3.org/2000/svg" viewBox="0 0 109.26 138.57"><defs><style>.cls-1{fill:#fbb03b;stroke:#8c6239;stroke-miterlimit:10;stroke-width:0.5px;}.cls-2{fill:#754c24;}</style></defs><title>Cat2Cat7</title><g id="Layer_2" data-name="Layer 2"><g id="Layer_1-2" data-name="Layer 1"><path class="cls-1" d="M107.56,114.65a6.64,6.64,0,0,1-1,5,11.62,11.62,0,0,1-11.54,5.4c-1.92,3-5.66,4.26-9.18,4.7-2.78.33-5.61.29-8.35.76a18.69,18.69,0,0,0-2.33.53,30.33,30.33,0,0,0-4.69,2l-.15.07c-.92.46-1.82.91-2.76,1.31a29,29,0,0,1-7.08,1.92l-.28,0a57.36,57.36,0,0,1-11.12.28H49l-.28,0c-3.74-.22-7.48-.59-11.19-1.14l-.32-.05c-3.06-.45-6.11-1-9.12-1.7l-.36-.08q-3.28-.75-6.52-1.67c-.9-.25-1.82-.51-2.76-.73-.35-.09-.71-.16-1.06-.24h0v0h0c-2.76-.53-6.27-.57-8.51,1a6.82,6.82,0,0,0-1.15,1,1.28,1.28,0,0,1-.25.15v0C6,134.73,5,136.58,3.33,137.76c-.76.53-1.92.86-2.53.16A2,2,0,0,1,.41,137c-.74-3.9,1.18-7.81,4.22-10.47l0,0a7.36,7.36,0,0,0,.92-.77,4.37,4.37,0,0,1,.48-.37,1.54,1.54,0,0,1,.34-.17h0a13,13,0,0,1,2-1.12A25.41,25.41,0,0,1,18.6,122.4h.53s.45,0,.46,0a42,42,0,0,1,5.61.7c1.43.24,2.85.52,4.26.83h0l.29.07c3.67.8,7.3,1.78,10.92,2.79l1.2.33h0l.71.19.11,0a29.37,29.37,0,0,0,7.1,1.18h.29c.5,0,1,0,1.51-.07A22.49,22.49,0,0,0,58,126.77h0a2.4,2.4,0,0,0-1.65-2.41,9,9,0,0,0-2.21-.07,4.59,4.59,0,0,1-1.3-9c2.53-.84,5.74.49,7.73-1.29A5.56,5.56,0,0,0,62,110.42C62.78,103.29,60,96.27,56.46,90s-7.7-12.18-10.13-18.93-2.79-14.73,1.22-20.67l.16-.23A19.11,19.11,0,0,0,59.64,53.8c.3,0,.6,0,.9-.07-.29,0-.59.05-.89.06a19.11,19.11,0,0,1-11.93-3.62,17.91,17.91,0,0,1-3.19-2.9C39.94,42,39.87,36.46,40.84,30c1.2-7.86.31-16.29,3-23.47a1,1,0,0,1,1.45-.48c5.26,3.13,7.68,9.5,9.27,15.47a1,1,0,0,0,1.58.51,18.47,18.47,0,0,1,2.76-1.81,20.39,20.39,0,0,1,6.23-2.15h0a20.44,20.44,0,0,1,12,1.44,1,1,0,0,0,1.41-1C78,13.7,77.57,8.85,77.11,4,77,2.69,76.58.62,77.84.27a10,10,0,0,1,6.23,2.26c3.05,2.59,4.72,6.46,6.84,9.86,3.77,6.05,7.09,12.75,7.14,19.89a19.3,19.3,0,0,1-4.26,12.25h0c7.66,6.59,12.43,16.16,14.26,26.09s.9,20.23-1.52,30a29.25,29.25,0,0,1-3.88,9.73,33.89,33.89,0,0,1-7.3,7l6-4.37a5.87,5.87,0,0,1,2.34-1.23A3.72,3.72,0,0,1,107.56,114.65Z"/><path class="cls-2" d="M93.19,51.9a8.53,8.53,0,0,1-2.13,4.36,17.53,17.53,0,0,1-3.74,3.16,30.16,30.16,0,0,1-8.88,3.78,29.34,29.34,0,0,1-9.61.77A21.55,21.55,0,0,1,59.7,61.2l.08-.21a46.78,46.78,0,0,0,9.1.47c.75,0,1.5-.12,2.24-.15s1.47-.16,2.2-.3a42.14,42.14,0,0,0,4.37-.84c1.45-.34,2.88-.78,4.28-1.24s2.79-1,4.16-1.65a22.86,22.86,0,0,0,3.81-2.2,10.35,10.35,0,0,0,3-3.25Z"/><path class="cls-2" d="M97.41,62.27a29.1,29.1,0,0,1-6.89,7.07A34.3,34.3,0,0,1,86.28,72a34.11,34.11,0,0,1-4.68,1.93,26.14,26.14,0,0,1-10.09,1.18,18.62,18.62,0,0,1-9.44-3.29l.1-.24a32.33,32.33,0,0,0,9.31.66,37.53,37.53,0,0,0,9-1.79,42.47,42.47,0,0,0,4.31-1.65c1.43-.59,2.81-1.3,4.2-2,2.75-1.47,5.49-3.06,8.27-4.72Z"/><path class="cls-2" d="M101.12,73.27a9.18,9.18,0,0,1-1.23,2.09,12.09,12.09,0,0,1-.78,1l-.88.86a16.29,16.29,0,0,1-1.88,1.55,16.64,16.64,0,0,1-2,1.33c-.68.45-1.4.78-2.1,1.18s-1.45.66-2.18,1a34.52,34.52,0,0,1-4.47,1.6,38.4,38.4,0,0,1-9.33,1.66H73.88c-.8,0-1.6-.13-2.39-.19S69.9,85,69.12,84.9a20.17,20.17,0,0,1-2.32-.73l0-.25c.77-.11,1.53-.16,2.28-.25l2.26-.33c.75-.11,1.5-.21,2.24-.35l2.23-.43c3-.57,5.9-1.3,8.82-2,.73-.18,1.46-.39,2.18-.61s1.45-.43,2.15-.69,1.43-.47,2.13-.76,1.43-.48,2.11-.78a36,36,0,0,0,4.06-1.94,16,16,0,0,0,3.64-2.62Z"/><path class="cls-2" d="M100.73,85.59a15.19,15.19,0,0,1-6,6.56c-.64.37-1.26.8-1.92,1.14l-2,.94c-.68.28-1.36.57-2.06.81s-1.39.45-2.1.64a28.7,28.7,0,0,1-8.7,1,22.07,22.07,0,0,1-4.4-.6,13.14,13.14,0,0,1-4.15-1.74l0-.24c2.84-.24,5.5-.65,8.18-1.12s5.3-1,7.93-1.63a71.29,71.29,0,0,0,7.72-2.3,31.33,31.33,0,0,0,7.26-3.66Z"/><path class="cls-2" d="M100.56,96.73a11.84,11.84,0,0,1-4.73,7.47,19.25,19.25,0,0,1-8.21,3.56c-.74.13-1.47.22-2.21.33a20.43,20.43,0,0,1-2.21.1c-.74,0-1.48,0-2.21-.07s-1.47-.22-2.19-.32a16.2,16.2,0,0,1-7.89-3.61L71,104c.68.16,1.32.38,2,.53s1.32.3,2,.36a30.13,30.13,0,0,0,4,.34,37.45,37.45,0,0,0,7.92-.76,27.27,27.27,0,0,0,7.38-2.67,18,18,0,0,0,6-5.15Z"/><path class="cls-2" d="M5.83,135l-.06,0H5.7a3.26,3.26,0,0,1-2.38-1.2,4.6,4.6,0,0,1-1.13-2.42,4.71,4.71,0,0,1,.35-2.67,4.37,4.37,0,0,1,.43-.76,3.06,3.06,0,0,1,1.35-1.07l.1,0,0,0,.06,0a.09.09,0,0,1,.11.06.13.13,0,0,1,0,.06,6.9,6.9,0,0,0-.57,4.15,7,7,0,0,0,1.78,3.78A.11.11,0,0,1,5.83,135Z"/><path class="cls-2" d="M11.63,128.74a12.85,12.85,0,0,0,.94,2.07l-.07.08-.07.08a2.66,2.66,0,0,1-.83-.3s0,0,0,0a3.68,3.68,0,0,1-1.31-1.19,4.5,4.5,0,0,1-.73-3,4.88,4.88,0,0,1,1.2-2.69,3.66,3.66,0,0,1,1.77-1.11h0a2.64,2.64,0,0,1,.49-.08l.06.09.06.1a16.73,16.73,0,0,0-1.13,2,7.16,7.16,0,0,0-.6,2A4.61,4.61,0,0,0,11.63,128.74Z"/><path class="cls-2" d="M30,129a9.16,9.16,0,0,0-.85,2.28,13.26,13.26,0,0,0-.29,2.6l-.13,0-.13,0-.18-.22h0a5.06,5.06,0,0,1-1.06-2.63,5.92,5.92,0,0,1,2.74-5.57A4.57,4.57,0,0,1,33,124.9h0l.21,0,0,.12.05.12A25.51,25.51,0,0,0,31.43,127,10.9,10.9,0,0,0,30,129Z"/><path class="cls-2" d="M43,127.52a.18.18,0,0,1,0,.09,22.43,22.43,0,0,0-1.59,1.78,11.4,11.4,0,0,0-1.23,2,6.89,6.89,0,0,0-.59,4.48v0a.15.15,0,0,1-.08.08h-.06l-.08,0-.09,0a3,3,0,0,1-1.23-1,3.72,3.72,0,0,1-.63-1.51,4.78,4.78,0,0,1,.58-3.07,5.7,5.7,0,0,1,2-2.12,5.29,5.29,0,0,1,2.2-.76h0a3.66,3.66,0,0,1,.58,0h.1a.13.13,0,0,1,.11.09S43,127.5,43,127.52Z"/><path class="cls-2" d="M23.18,123.17c-.15.41-.33.76-.48,1.14s-.33.71-.48,1.08c-.29.72-.6,1.41-.84,2.12a22.14,22.14,0,0,0-.67,2.14c-.17.71-.32,1.48-.44,2.32l-.11,0-.1,0a.58.58,0,0,1-.12-.1h0a3.45,3.45,0,0,1-1.07-2.46,7,7,0,0,1,.47-3,6.67,6.67,0,0,1,1.47-2.35A3.94,3.94,0,0,1,22.87,123h0a.66.66,0,0,1,.15,0l.07.09h0Z"/><path class="cls-2" d="M48.92,136.85l-.09,0-.09,0a.31.31,0,0,1-.12-.09h0a3.8,3.8,0,0,1-1.4-2.12,5.84,5.84,0,0,1-.05-2.79,5.33,5.33,0,0,1,1.3-2.5,3.9,3.9,0,0,1,1.63-1h0a2.89,2.89,0,0,1,.94-.11l0,0,.09.12a10.47,10.47,0,0,0-1.26,1.88,9.62,9.62,0,0,0-1.18,4.28A9.92,9.92,0,0,0,48.92,136.85Z"/><path class="cls-2" d="M58.19,136.64l0,.09-.06.09H58A3.93,3.93,0,0,1,55.72,135a9,9,0,0,1-.72-1.34,6.59,6.59,0,0,1-.49-1.74,4.87,4.87,0,0,1,.21-1.95,4.66,4.66,0,0,1,.87-1.5,5.63,5.63,0,0,1,2-1.5l.39-.16h0l0,.09.06.09h0a18.9,18.9,0,0,0-1.41,2.43,3.4,3.4,0,0,0-.33,2.15,17,17,0,0,0,.91,2.37C57.61,134.8,57.82,135.62,58.19,136.64Z"/><path class="cls-2" d="M59.19,20.27a5.63,5.63,0,0,1,4.79,1A7.23,7.23,0,0,1,65.8,23.1,8.08,8.08,0,0,1,67,25.35a9.54,9.54,0,0,1,.52,4.86,7.73,7.73,0,0,1-2.1,4.32h0c-.17-1.53-.26-2.92-.47-4.28a24.39,24.39,0,0,0-.8-3.91,7.18,7.18,0,0,0-.33-.92c-.11-.3-.25-.59-.39-.88a10.57,10.57,0,0,0-1-1.64,8.79,8.79,0,0,0-3.19-2.58Z"/><path class="cls-2" d="M65.83,18.19a5.73,5.73,0,0,1,4.81,1.06l1,.86a10.82,10.82,0,0,1,.8,1l.67,1.07.48,1.15.37,1.18.22,1.2c0,.4.08.8.1,1.2l0,1.2a8.72,8.72,0,0,1-1.54,4.44l-.24-.06A24.94,24.94,0,0,0,72,28.26a19,19,0,0,0-1.13-3.87,13.55,13.55,0,0,0-2-3.32,11.46,11.46,0,0,0-3.11-2.64Z"/><path class="cls-2" d="M73.85,18.55a5.68,5.68,0,0,1,2.16.59,6.52,6.52,0,0,1,1.69,1.14,9.69,9.69,0,0,1,2.23,3.29,10.75,10.75,0,0,1,1,4,6.15,6.15,0,0,1-1.18,4l-.24-.05a10.57,10.57,0,0,0-.75-3.44A21.47,21.47,0,0,0,77.24,25c-.56-1-1.23-2-1.83-3a30.86,30.86,0,0,1-1.74-3.24Z"/><path class="cls-2" d="M70.88,132.79V133a.11.11,0,0,1-.08,0,4.26,4.26,0,0,1-3.18-.08,8.69,8.69,0,0,1-1.46-.67,6.34,6.34,0,0,1-1.47-1.15,4.62,4.62,0,0,1-1-1.78,4.94,4.94,0,0,1-.1-1.82,6.46,6.46,0,0,1,1-2.55c.09-.13.17-.26.27-.38h0l.1,0,.11,0h0a19.58,19.58,0,0,0,.14,2.94,3.33,3.33,0,0,0,1,2,18.8,18.8,0,0,0,2.23,1.41C69.26,131.62,69.94,132.17,70.88,132.79Z"/></g></g></svg>